<svg width="24" height="24" viewBox="0 0 24 24" fill="none" xmlns="http://www.w3.org/2000/svg">
<path fill-rule="evenodd" clip-rule="evenodd" d="M21.75 6.375C21.75 4.275 20.1 2.625 18 2.625C15.9 2.625 14.25 4.275 14.25 6.375C14.25 8.475 15.9 10.125 18 10.125C20.1 10.125 21.75 8.475 21.75 6.375ZM12.75 6.375C12.75 3.45 15.075 1.125 18 1.125C20.925 1.125 23.25 3.45 23.25 6.375C23.25 9.3 20.925 11.625 18 11.625C15.075 11.625 12.75 9.3 12.75 6.375ZM9 14.625C6.93281 14.625 5.25 12.9422 5.25 10.875C5.25 8.80781 6.93281 7.125 9 7.125C11.0672 7.125 12.75 8.80781 12.75 10.875C12.75 12.9422 11.0672 14.625 9 14.625ZM9 8.625C7.75781 8.625 6.75 9.63281 6.75 10.875C6.75 12.1172 7.75781 13.125 9 13.125C10.2422 13.125 11.25 12.1172 11.25 10.875C11.25 9.63281 10.2422 8.625 9 8.625ZM8.625 16.875C11.625 16.875 14.1 18.825 14.775 21.375H2.475C3.15 18.825 5.625 16.875 8.625 16.875ZM8.625 15.375C4.275 15.375 0.75 18.75 0.75 22.875H16.5C16.5 18.75 12.975 15.375 8.625 15.375Z" fill="#0A5F59"/>
<path d="M19 4H17.5V5.5H16V7H17.5V8.5H19V7H20.5V5.5H19V4Z" fill="#0A5F59"/>
</svg>
