<svg width="24" height="24" viewBox="0 0 24 24" fill="none" xmlns="http://www.w3.org/2000/svg">
<g clip-path="url(#clip0_43_4428)">
<path fill-rule="evenodd" clip-rule="evenodd" d="M13.5 6C13.5 3.075 15.825 0.75 18.75 0.75C21.675 0.75 24 3.075 24 6C24 8.025 22.875 9.75 21.225 10.65L19.875 18H4.8L2.625 6.75H0V5.25H3.9L4.425 8.25H14.025C13.65 7.575 13.5 6.825 13.5 6ZM6.075 16.5H18.675L19.65 11.175C19.35 11.25 19.05 11.25 18.75 11.25C17.325 11.25 16.05 10.65 15.075 9.75H4.725L6.075 16.5ZM15 6C15 8.1 16.65 9.75 18.75 9.75C20.85 9.75 22.5 8.1 22.5 6C22.5 3.9 20.85 2.25 18.75 2.25C16.65 2.25 15 3.9 15 6ZM6 23.25C6.82843 23.25 7.5 22.5784 7.5 21.75C7.5 20.9216 6.82843 20.25 6 20.25C5.17157 20.25 4.5 20.9216 4.5 21.75C4.5 22.5784 5.17157 23.25 6 23.25ZM18 23.25C18.8284 23.25 19.5 22.5784 19.5 21.75C19.5 20.9216 18.8284 20.25 18 20.25C17.1716 20.25 16.5 20.9216 16.5 21.75C16.5 22.5784 17.1716 23.25 18 23.25Z" fill="black"/>
</g>
<defs>
<clipPath id="clip0_43_4428">
<rect width="24" height="24" fill="white"/>
</clipPath>
</defs>
</svg>
