<svg width="24" height="24" viewBox="0 0 24 24" fill="none" xmlns="http://www.w3.org/2000/svg">
<g clip-path="url(#clip0_43_3984)">
<path d="M5.39759 10.1054C5.39516 9.1732 5.56416 8.2497 5.89489 7.38775C6.22563 6.52581 6.7116 5.74237 7.32497 5.08231C7.93833 4.42226 8.66704 3.89857 9.46933 3.54125C10.2716 3.18393 11.1317 3 12.0004 3C12.869 3 13.7291 3.18393 14.5314 3.54125C15.3337 3.89857 16.0624 4.42226 16.6758 5.08231C17.2891 5.74237 17.7751 6.52581 18.1058 7.38775C18.4366 8.2497 18.6056 9.1732 18.6031 10.1054V10.1054C18.6031 13.6397 19.2922 15.6907 19.8991 16.8117C19.9645 16.9314 19.9993 17.0676 20 17.2064C20.0007 17.3452 19.9672 17.4818 19.9031 17.6023C19.8389 17.7228 19.7462 17.823 19.6344 17.8929C19.5226 17.9627 19.3957 17.9996 19.2663 18H4.7337C4.60433 17.9996 4.47734 17.9627 4.36553 17.8928C4.25373 17.823 4.16106 17.7227 4.09689 17.6022C4.03271 17.4817 3.9993 17.3451 4.00001 17.2063C4.00073 17.0674 4.03555 16.9313 4.10096 16.8115C4.70819 15.6905 5.39759 13.6396 5.39759 10.1054H5.39759Z" stroke="black" stroke-width="1.5" stroke-linecap="round" stroke-linejoin="round"/>
<path d="M9 18V18.75C9 19.5456 9.31607 20.3087 9.87868 20.8713C10.4413 21.4339 11.2044 21.75 12 21.75C12.7956 21.75 13.5587 21.4339 14.1213 20.8713C14.6839 20.3087 15 19.5456 15 18.75V18" stroke="black" stroke-width="1.5" stroke-linecap="round" stroke-linejoin="round"/>
<path d="M17.1973 2.24902C18.7234 3.21245 19.9536 4.57885 20.7521 6.19736" stroke="black" stroke-width="1.5" stroke-linecap="round" stroke-linejoin="round"/>
<path d="M3.24805 6.19736C4.04657 4.57885 5.27679 3.21245 6.8029 2.24902" stroke="black" stroke-width="1.5" stroke-linecap="round" stroke-linejoin="round"/>
</g>
<defs>
<clipPath id="clip0_43_3984">
<rect width="24" height="24" fill="white"/>
</clipPath>
</defs>
</svg>
