<svg width="24" height="24" viewBox="0 0 24 24" fill="none" xmlns="http://www.w3.org/2000/svg">
<g clip-path="url(#clip0_43_4434)">
<path fill-rule="evenodd" clip-rule="evenodd" d="M11.6771 0.754689C14.6489 0.646877 17.6724 1.7625 19.9505 4.04063C24.3521 8.44219 24.3521 15.5484 19.9505 19.95C15.5489 24.3516 8.44268 24.3516 4.04112 19.95C1.76299 17.6719 0.647365 14.6484 0.755178 11.6813H11.6771V0.754689ZM5.10049 18.8906C8.9208 22.7109 15.0708 22.7109 18.8911 18.8906C22.7114 15.075 22.7114 8.92031 18.8911 5.1C17.2974 3.51094 15.338 2.61094 13.163 2.34375V11.6766V13.1625H11.6771H2.34424C2.61143 15.3375 3.51143 17.3016 5.10049 18.8906ZM10.1958 10.1953H8.70986H2.42861H0.914551C0.994238 9.68436 1.1208 9.19218 1.26611 8.70936C2.34893 5.14686 5.14736 2.34843 8.70986 1.26093C9.19268 1.11561 9.68955 0.993738 10.1958 0.909363V2.42343V8.70936V10.1953ZM8.70986 8.70936V2.82655C5.96768 3.80624 3.80674 5.96718 2.82705 8.70936H8.70986Z" fill="black"/>
</g>
<defs>
<clipPath id="clip0_43_4434">
<rect width="24" height="24" fill="white"/>
</clipPath>
</defs>
</svg>
