<svg width="32" height="32" viewBox="0 0 32 32" fill="none" xmlns="http://www.w3.org/2000/svg">
<path fill-rule="evenodd" clip-rule="evenodd" d="M26.4543 17.4443L27.8576 18.2373C28.3176 18.498 28.6559 18.9299 28.799 19.439C28.942 19.948 28.8781 20.4929 28.6212 20.9551L26.7921 24.2383C26.6641 24.4686 26.4918 24.6713 26.2851 24.8347C26.0785 24.9981 25.8415 25.119 25.5879 25.1905C25.3342 25.2619 25.069 25.2825 24.8074 25.251C24.5458 25.2194 24.293 25.1365 24.0636 25.0068L22.6662 24.2178C21.823 24.9112 20.8784 25.4711 19.8653 25.8779V27.5C19.8649 28.03 19.6543 28.5381 19.2798 28.9131C18.9052 29.288 18.3973 29.4991 17.8673 29.5H14.1329C13.603 29.4991 13.095 29.288 12.7205 28.9131C12.3459 28.5381 12.1354 28.03 12.1349 27.5V25.8789C11.2588 25.5305 10.4339 25.065 9.6828 24.4951L8.31952 25.3418C8.09585 25.4808 7.8469 25.5741 7.587 25.6165C7.32711 25.6589 7.0614 25.6494 6.80517 25.5887C6.54894 25.528 6.30725 25.4172 6.09401 25.2627C5.88077 25.1082 5.7002 24.913 5.56268 24.6885L3.59682 21.4834C3.32133 21.0326 3.235 20.4913 3.35662 19.9772C3.47824 19.4631 3.79797 19.0178 4.24623 18.7383L5.62323 17.8818C5.50812 17.2611 5.44961 16.6313 5.44842 16C5.44858 15.5167 5.48153 15.034 5.54706 14.5552L4.14276 13.7627C3.68297 13.502 3.34476 13.0703 3.20174 12.5615C3.05871 12.0527 3.12245 11.508 3.37909 11.0459L5.20818 7.76074C5.33636 7.53074 5.50873 7.32832 5.71538 7.16514C5.92203 7.00195 6.15888 6.88121 6.41234 6.80984C6.66579 6.73847 6.93085 6.71789 7.19229 6.74927C7.45372 6.78065 7.70638 6.86338 7.93575 6.99271L9.33418 7.78271C10.1769 7.08856 11.1216 6.52844 12.135 6.12207V4.5C12.1353 3.97001 12.3459 3.4618 12.7204 3.08686C13.095 2.71191 13.603 2.50086 14.133 2.5H17.8674C18.3974 2.50086 18.9054 2.71191 19.28 3.08686C19.6545 3.4618 19.8651 3.97001 19.8654 4.5V6.12108C20.7417 6.46947 21.5667 6.93532 22.3176 7.50585L23.6799 6.65868C23.9035 6.51945 24.1526 6.42588 24.4126 6.38337C24.6726 6.34085 24.9385 6.35023 25.1948 6.41097C25.4512 6.4717 25.693 6.58259 25.9063 6.73723C26.1196 6.89188 26.3002 7.08722 26.4377 7.312L28.4035 10.5156C28.6789 10.9665 28.7651 11.5079 28.6435 12.022C28.5219 12.5361 28.2023 12.9814 27.7541 13.2612L26.3771 14.1177C26.4922 14.7385 26.5507 15.3686 26.5519 16C26.5516 16.4831 26.519 16.9656 26.4543 17.4443ZM23.0295 22.126L25.0451 23.2637L26.8742 19.9805L24.8586 18.8408C24.674 18.7365 24.5272 18.5763 24.4394 18.3833C24.3517 18.1902 24.3275 17.9743 24.3703 17.7666C24.6398 16.483 24.6091 15.1545 24.2805 13.8848C24.2287 13.6793 24.2435 13.4626 24.3228 13.2661C24.4022 13.0696 24.5419 12.9034 24.7219 12.7915L26.6984 11.5625L24.7326 8.35693L22.7687 9.58008C22.587 9.69271 22.374 9.74426 22.1609 9.72722C21.9478 9.71018 21.7457 9.62543 21.5842 9.48535C20.7059 8.71439 19.6775 8.13368 18.5637 7.77979C18.3611 7.71564 18.1841 7.58862 18.0586 7.41716C17.933 7.24569 17.8654 7.03869 17.8654 6.82617V4.5H14.133L14.1349 6.82617C14.1349 7.03866 14.0671 7.2456 13.9416 7.41705C13.8161 7.58849 13.6392 7.71553 13.4367 7.77979C12.2066 8.17023 11.0822 8.83698 10.1496 9.729C9.99438 9.87594 9.79616 9.96926 9.58402 9.99527C9.37188 10.0213 9.15699 9.97862 8.97088 9.87354L6.9533 8.73438L5.12618 12.02L7.14178 13.1587C7.32645 13.263 7.47324 13.4232 7.561 13.6162C7.64875 13.8093 7.67293 14.0252 7.63006 14.2329C7.36054 15.5167 7.39128 16.8453 7.71991 18.1152C7.77176 18.3208 7.75694 18.5375 7.6776 18.7341C7.59826 18.9307 7.4585 19.097 7.2785 19.209L5.30194 20.4375L7.26776 23.6436L9.2326 22.4199C9.41416 22.3071 9.62711 22.2556 9.84016 22.2728C10.0532 22.29 10.2551 22.3751 10.4162 22.5156C11.2948 23.286 12.3232 23.8664 13.4367 24.2207C13.6394 24.2846 13.8164 24.4114 13.942 24.5829C14.0676 24.7543 14.1352 24.9613 14.1349 25.1738V27.5H17.8674L17.8654 25.1738C17.8654 24.9614 17.933 24.7544 18.0586 24.5831C18.1842 24.4117 18.3611 24.2847 18.5637 24.2207C19.7936 23.8295 20.9179 23.1625 21.8508 22.2705C22.0062 22.1239 22.2043 22.0308 22.4164 22.0048C22.6285 21.9788 22.8433 22.0213 23.0295 22.126ZM13.2206 11.8398C14.0436 11.2911 15.0108 10.9988 16 11C17.3248 11.0023 18.5947 11.53 19.5309 12.4673C20.4672 13.4047 20.9934 14.6752 20.9941 16C20.9941 16.9892 20.7007 17.9561 20.1511 18.7785C19.6014 19.6008 18.8202 20.2417 17.9062 20.62C16.9922 20.9982 15.9866 21.0969 15.0165 20.9035C14.0465 20.7101 13.1556 20.2333 12.4565 19.5335C11.7575 18.8336 11.2818 17.9421 11.0895 16.9719C10.8972 16.0016 10.9971 14.996 11.3764 14.0825C11.7558 13.169 12.3975 12.3885 13.2206 11.8398ZM14.3317 18.4973C14.8258 18.8262 15.4064 19.0012 16 19C16.7946 18.9984 17.5562 18.6816 18.1175 18.1192C18.6788 17.5568 18.9941 16.7946 18.9941 16C18.9941 15.4064 18.818 14.8262 18.4881 14.3327C18.1582 13.8392 17.6894 13.4547 17.1408 13.2278C16.5923 13.0009 15.9888 12.9419 15.4067 13.0581C14.8246 13.1743 14.2901 13.4606 13.8707 13.8808C13.4514 14.3009 13.1662 14.836 13.0511 15.4183C12.936 16.0007 12.9962 16.604 13.2242 17.1521C13.4522 17.7002 13.8376 18.1683 14.3317 18.4973Z" fill="black"/>
</svg>
