<svg width="95" height="32" viewBox="0 0 95 32" fill="none" xmlns="http://www.w3.org/2000/svg">
<path fill-rule="evenodd" clip-rule="evenodd" d="M21.1877 4H7.3877C6.8627 4 6.48769 4.375 6.48769 4.9V11.875H5.5127H2.5127C2.0627 11.875 1.7627 12.175 1.7627 12.625V27.25C1.7627 27.7 2.0627 28 2.5127 28H11.5127C11.9627 28 12.2627 27.7 12.2627 27.25V26.5H21.3377C21.8627 26.5 22.2377 26.125 22.2377 25.6V4.9C22.2377 4.375 21.7127 4 21.1877 4ZM10.7627 26.5H7.3877H3.2627V16.15H10.7627V26.5ZM10.7627 14.65H3.2627V13.375H10.7627V14.65ZM20.7377 25H12.2627V12.625C12.2627 12.175 11.9627 11.875 11.5127 11.875H7.98769V9.25H20.7377V25ZM20.7377 7.75H7.98769V5.5H20.7377V7.75ZM7.01211 26.2C7.34348 26.2 7.61211 25.9314 7.61211 25.6C7.61211 25.2686 7.34348 25 7.01211 25C6.68074 25 6.41211 25.2686 6.41211 25.6C6.41211 25.9314 6.68074 26.2 7.01211 26.2ZM15.1123 23.5C15.1123 23.9142 14.7765 24.25 14.3623 24.25C13.9481 24.25 13.6123 23.9142 13.6123 23.5C13.6123 23.0858 13.9481 22.75 14.3623 22.75C14.7765 22.75 15.1123 23.0858 15.1123 23.5Z" fill="white"/>
</svg>
