<svg width="24" height="24" viewBox="0 0 24 24" fill="none" xmlns="http://www.w3.org/2000/svg">
<path d="M12 1C18.384 1 23 5.372 23 11.353C23 15.133 21.14 18.363 18.007 20.175L17.962 20.199L19.334 23.1C18.0232 22.8864 16.7119 22.6764 15.4 22.47L10.577 21.67C4.793 20.8 1 16.768 1 11.353C1 5.373 5.616 1 12 1ZM12 2.8C6.745 2.8 3 6.41 3 11.412C3 15.939 6.077 19.166 10.866 19.9C11.643 20.019 12.366 20.198 13.036 20.302L16.5 20.9L15.7 19.4L16.4 18.995C19.215 17.555 21 14.759 21 11.412C21 6.41 17.255 2.8 12 2.8ZM7.944 10.4C8.26756 10.4 8.57788 10.5285 8.80667 10.7573C9.03546 10.9861 9.164 11.2964 9.164 11.62C9.164 11.9436 9.03546 12.2539 8.80667 12.4827C8.57788 12.7115 8.26756 12.84 7.944 12.84C7.62044 12.84 7.31012 12.7115 7.08133 12.4827C6.85254 12.2539 6.724 11.9436 6.724 11.62C6.724 11.2964 6.85254 10.9861 7.08133 10.7573C7.31012 10.5285 7.62044 10.4 7.944 10.4ZM11.873 10.4C12.1966 10.4 12.5069 10.5285 12.7357 10.7573C12.9645 10.9861 13.093 11.2964 13.093 11.62C13.093 11.9436 12.9645 12.2539 12.7357 12.4827C12.5069 12.7115 12.1966 12.84 11.873 12.84C11.5494 12.84 11.2391 12.7115 11.0103 12.4827C10.7815 12.2539 10.653 11.9436 10.653 11.62C10.653 11.2964 10.7815 10.9861 11.0103 10.7573C11.2391 10.5285 11.5494 10.4 11.873 10.4ZM15.801 10.4C16.1246 10.4 16.4349 10.5285 16.6637 10.7573C16.8925 10.9861 17.021 11.2964 17.021 11.62C17.021 11.9436 16.8925 12.2539 16.6637 12.4827C16.4349 12.7115 16.1246 12.84 15.801 12.84C15.4774 12.84 15.1671 12.7115 14.9383 12.4827C14.7095 12.2539 14.581 11.9436 14.581 11.62C14.581 11.2964 14.7095 10.9861 14.9383 10.7573C15.1671 10.5285 15.4774 10.4 15.801 10.4Z" fill="black"/>
</svg>
