<svg width="32" height="32" viewBox="0 0 32 32" fill="none" xmlns="http://www.w3.org/2000/svg">
<path fill-rule="evenodd" clip-rule="evenodd" d="M17 13.72V25.61L19.3 24.89C19.6 25.5 19.95 26.09 20.3 26.66L16.3 28C16.0986 28.0657 15.8814 28.0657 15.68 28L4.37 24.18C3.97089 24.0476 3.62369 23.7927 3.37774 23.4516C3.1318 23.1105 2.99962 22.7006 3 22.28V9.00003V8.88003C3.02048 8.71718 3.07499 8.56045 3.16 8.42003C3.21174 8.31988 3.27927 8.22871 3.36 8.15003H3.42H3.52C3.56951 8.11093 3.62316 8.0774 3.68 8.05003L15.1 4.26003C15.7175 4.05981 16.3825 4.05981 17 4.26003L28.34 8.19003C28.3968 8.2174 28.4505 8.25093 28.5 8.29003H28.6H28.65H28.71C28.7907 8.36871 28.8583 8.45988 28.91 8.56003C28.9551 8.66187 28.9854 8.76963 29 8.88003V9.00003V15.82C28.4199 15.2611 27.742 14.8137 27 14.5V10.39L22.3 12L17 13.72ZM16.32 6.16003C16.1124 6.08992 15.8876 6.08992 15.68 6.16003L13.56 6.87003L22 9.94003L24.84 9.00003L16.32 6.16003ZM19 11L10.68 7.94003L10.55 7.87003L7.16 9.00003L16 12L19 11ZM15 13.72L5 10.39V22.28L15 25.61V13.72ZM28.55 16.8L28.6 16.85C29.502 17.8517 30.0008 19.1521 30 20.5C30 23.6157 26.127 28.5401 25.3564 29.5198C25.3207 29.5652 25.2917 29.6021 25.27 29.63C25.1762 29.7432 25.0585 29.8344 24.9254 29.897C24.7923 29.9595 24.6471 29.992 24.5 29.992C24.3529 29.992 24.2077 29.9595 24.0746 29.897C23.9415 29.8344 23.8238 29.7432 23.73 29.63C22.8617 28.5615 22.057 27.4429 21.32 26.28C20.15 24.44 19 22.2 19 20.5C19.0026 19.0421 19.583 17.6447 20.6138 16.6138C21.6447 15.583 23.0421 15.0026 24.5 15C25.3787 15.0018 26.2438 15.2181 27.02 15.63C27.4169 15.8284 27.7866 16.0771 28.12 16.37C28.2707 16.5057 28.4143 16.6493 28.55 16.8ZM25.6111 18.8371C25.2822 18.6173 24.8956 18.5 24.5 18.5C23.9696 18.5 23.4609 18.7107 23.0858 19.0858C22.7107 19.4609 22.5 19.9696 22.5 20.5C22.5 20.8956 22.6173 21.2822 22.8371 21.6111C23.0568 21.94 23.3692 22.1964 23.7346 22.3478C24.1001 22.4991 24.5022 22.5387 24.8902 22.4616C25.2781 22.3844 25.6345 22.1939 25.9142 21.9142C26.1939 21.6345 26.3844 21.2781 26.4616 20.8902C26.5387 20.5022 26.4991 20.1001 26.3478 19.7346C26.1964 19.3692 25.94 19.0568 25.6111 18.8371Z" fill="white"/>
</svg>
