<svg width="24" height="24" viewBox="0 0 24 24" fill="none" xmlns="http://www.w3.org/2000/svg">
<path fill-rule="evenodd" clip-rule="evenodd" d="M21.1877 0H7.3877C6.8627 0 6.48769 0.375 6.48769 0.9V7.875H5.5127H2.5127C2.0627 7.875 1.7627 8.175 1.7627 8.625V23.25C1.7627 23.7 2.0627 24 2.5127 24H11.5127C11.9627 24 12.2627 23.7 12.2627 23.25V22.5H21.3377C21.8627 22.5 22.2377 22.125 22.2377 21.6V0.9C22.2377 0.375 21.7127 0 21.1877 0ZM10.7627 22.5H7.3877H3.2627V12.15H10.7627V22.5ZM10.7627 10.65H3.2627V9.375H10.7627V10.65ZM20.7377 21H12.2627V8.625C12.2627 8.175 11.9627 7.875 11.5127 7.875H7.98769V5.25H20.7377V21ZM20.7377 3.75H7.98769V1.5H20.7377V3.75ZM7.01211 22.2C7.34348 22.2 7.61211 21.9314 7.61211 21.6C7.61211 21.2686 7.34348 21 7.01211 21C6.68074 21 6.41211 21.2686 6.41211 21.6C6.41211 21.9314 6.68074 22.2 7.01211 22.2ZM15.1123 19.5C15.1123 19.9142 14.7765 20.25 14.3623 20.25C13.9481 20.25 13.6123 19.9142 13.6123 19.5C13.6123 19.0858 13.9481 18.75 14.3623 18.75C14.7765 18.75 15.1123 19.0858 15.1123 19.5Z" fill="white"/>
</svg>
