<svg width="32" height="32" viewBox="0 0 32 32" fill="none" xmlns="http://www.w3.org/2000/svg">
<path fill-rule="evenodd" clip-rule="evenodd" d="M8.99988 8V10.13C8.67318 10.0456 8.3373 10.0019 7.99988 10H6.99988V8C6.99988 7.20435 7.31595 6.44129 7.87856 5.87868C8.44117 5.31607 9.20423 5 9.99988 5H11.9999C12.7955 5 13.5586 5.31607 14.1212 5.87868C14.6838 6.44129 14.9999 7.20435 14.9999 8V10C14.2958 9.99944 13.6047 10.1895 12.9999 10.55V8C12.9999 7.73478 12.8945 7.48043 12.707 7.29289C12.5194 7.10536 12.2651 7 11.9999 7H9.99988C9.73466 7 9.48031 7.10536 9.29277 7.29289C9.10524 7.48043 8.99988 7.73478 8.99988 8ZM19.2928 7.29289C19.1052 7.48043 18.9999 7.73478 18.9999 8V10.55C18.3951 10.1895 17.704 9.99944 16.9999 10V8C16.9999 7.20435 17.3159 6.44129 17.8786 5.87868C18.4412 5.31607 19.2042 5 19.9999 5H21.9999C22.7955 5 23.5586 5.31607 24.1212 5.87868C24.6838 6.44129 24.9999 7.20435 24.9999 8V10H23.9999C23.6625 10.0019 23.3266 10.0456 22.9999 10.13V8C22.9999 7.73478 22.8945 7.48043 22.707 7.29289C22.5194 7.10536 22.2651 7 21.9999 7H19.9999C19.7347 7 19.4803 7.10536 19.2928 7.29289ZM20.4999 12.1L20.4299 12H20.5699L20.4999 12.1ZM11.5699 12H11.4299L11.4999 12.1L11.5699 12ZM28.9999 24H2.99988C2.73466 24 2.48031 24.1054 2.29277 24.2929C2.10523 24.4804 1.99988 24.7348 1.99988 25C1.99988 25.2652 2.10523 25.5196 2.29277 25.7071C2.48031 25.8946 2.73466 26 2.99988 26H28.9999C29.2651 26 29.5194 25.8946 29.707 25.7071C29.8945 25.5196 29.9999 25.2652 29.9999 25C29.9999 24.7348 29.8945 24.4804 29.707 24.2929C29.5194 24.1054 29.2651 24 28.9999 24ZM9.49993 23H4.49993C3.94291 23.0031 3.40093 22.8193 2.96066 22.4781C2.52039 22.1368 2.20727 21.6578 2.07135 21.1176C1.93544 20.5774 1.98459 20.0072 2.21094 19.4982C2.43729 18.9893 2.82776 18.5709 3.31993 18.31C3.11217 17.9044 3.00256 17.4557 2.99993 17V14C2.99993 13.2044 3.31601 12.4413 3.87861 11.8787C4.44122 11.3161 5.20429 11 5.99993 11H7.99993C8.79558 11 9.55865 11.3161 10.1213 11.8787C10.6839 12.4413 10.9999 13.2044 10.9999 14V17C10.9973 17.4557 10.8877 17.9044 10.6799 18.31C11.0031 18.4821 11.2833 18.7248 11.4999 19.02C11.7165 18.7248 11.9968 18.4821 12.3199 18.31C12.1122 17.9044 12.0026 17.4557 11.9999 17V14C11.9999 13.2044 12.316 12.4413 12.8786 11.8787C13.4412 11.3161 14.2043 11 14.9999 11H16.9999C17.7956 11 18.5586 11.3161 19.1213 11.8787C19.6839 12.4413 19.9999 13.2044 19.9999 14V17C19.9973 17.4557 19.8877 17.9044 19.6799 18.31C20.0031 18.4821 20.2833 18.7248 20.4999 19.02C20.7165 18.7248 20.9968 18.4821 21.3199 18.31C21.1122 17.9044 21.0026 17.4557 20.9999 17V14C20.9999 13.2044 21.316 12.4413 21.8786 11.8787C22.4412 11.3161 23.2043 11 23.9999 11H25.9999C26.7956 11 27.5586 11.3161 28.1213 11.8787C28.6839 12.4413 28.9999 13.2044 28.9999 14V17C28.9973 17.4557 28.8877 17.9044 28.6799 18.31C29.1721 18.5709 29.5626 18.9893 29.7889 19.4982C30.0153 20.0072 30.0644 20.5774 29.9285 21.1176C29.7926 21.6578 29.4795 22.1368 29.0392 22.4781C28.5989 22.8193 28.057 23.0031 27.4999 23H22.4999C22.1115 23.0016 21.7282 22.9119 21.3808 22.7382C21.0334 22.5645 20.7317 22.3116 20.4999 22C20.2682 22.3116 19.9664 22.5645 19.619 22.7382C19.2716 22.9119 18.8883 23.0016 18.4999 23H13.4999C13.1115 23.0016 12.7282 22.9119 12.3808 22.7382C12.0334 22.5645 11.7317 22.3116 11.4999 22C11.2682 22.3116 10.9664 22.5645 10.619 22.7382C10.2716 22.9119 9.88832 23.0016 9.49993 23ZM23.2928 13.2929C23.1053 13.4804 22.9999 13.7348 22.9999 14V17C22.9999 17.2652 23.1053 17.5196 23.2928 17.7071C23.4804 17.8946 23.7347 18 23.9999 18H25.9999C26.2652 18 26.5195 17.8946 26.707 17.7071C26.8946 17.5196 26.9999 17.2652 26.9999 17V14C26.9999 13.7348 26.8946 13.4804 26.707 13.2929C26.5195 13.1054 26.2652 13 25.9999 13H23.9999C23.7347 13 23.4804 13.1054 23.2928 13.2929ZM27.4999 20H22.4999C22.3673 20 22.2402 20.0527 22.1464 20.1464C22.0526 20.2402 21.9999 20.3674 21.9999 20.5C21.9999 20.6326 22.0526 20.7598 22.1464 20.8536C22.2402 20.9473 22.3673 21 22.4999 21H27.4999C27.6325 21 27.7597 20.9473 27.8535 20.8536C27.9473 20.7598 27.9999 20.6326 27.9999 20.5C27.9999 20.3674 27.9473 20.2402 27.8535 20.1464C27.7597 20.0527 27.6325 20 27.4999 20ZM14.2928 13.2929C14.1053 13.4804 13.9999 13.7348 13.9999 14V17C13.9999 17.2652 14.1053 17.5196 14.2928 17.7071C14.4804 17.8946 14.7347 18 14.9999 18H16.9999C17.2652 18 17.5195 17.8946 17.707 17.7071C17.8946 17.5196 17.9999 17.2652 17.9999 17V14C17.9999 13.7348 17.8946 13.4804 17.707 13.2929C17.5195 13.1054 17.2652 13 16.9999 13H14.9999C14.7347 13 14.4804 13.1054 14.2928 13.2929ZM18.4999 20H13.4999C13.3673 20 13.2401 20.0527 13.1464 20.1464C13.0526 20.2402 12.9999 20.3674 12.9999 20.5C12.9999 20.6326 13.0526 20.7598 13.1464 20.8536C13.2401 20.9473 13.3673 21 13.4999 21H18.4999C18.6325 21 18.7597 20.9473 18.8535 20.8536C18.9473 20.7598 18.9999 20.6326 18.9999 20.5C18.9999 20.3674 18.9473 20.2402 18.8535 20.1464C18.7597 20.0527 18.6325 20 18.4999 20ZM5.29283 13.2929C5.10529 13.4804 4.99993 13.7348 4.99993 14V17C4.99993 17.2652 5.10529 17.5196 5.29283 17.7071C5.48036 17.8946 5.73472 18 5.99993 18H7.99993C8.26515 18 8.51951 17.8946 8.70704 17.7071C8.89458 17.5196 8.99993 17.2652 8.99993 17V14C8.99993 13.7348 8.89458 13.4804 8.70704 13.2929C8.51951 13.1054 8.26515 13 7.99993 13H5.99993C5.73472 13 5.48036 13.1054 5.29283 13.2929ZM9.49993 20H4.49993C4.36733 20 4.24015 20.0527 4.14638 20.1464C4.05261 20.2402 3.99993 20.3674 3.99993 20.5C3.99993 20.6326 4.05261 20.7598 4.14638 20.8536C4.24015 20.9473 4.36733 21 4.49993 21H9.49993C9.63254 21 9.75972 20.9473 9.85349 20.8536C9.94726 20.7598 9.99993 20.6326 9.99993 20.5C9.99993 20.3674 9.94726 20.2402 9.85349 20.1464C9.75972 20.0527 9.63254 20 9.49993 20Z" fill="white"/>
</svg>
