<svg width="20" height="20" viewBox="0 0 20 20" fill="none" xmlns="http://www.w3.org/2000/svg">
<path fill-rule="evenodd" clip-rule="evenodd" d="M2.42245 1.42623C2.41883 1.42941 2.41487 1.4329 2.41058 1.43673C2.39161 1.45362 2.36614 1.47688 2.33521 1.50647C2.27339 1.5656 2.18949 1.65027 2.09186 1.76018C1.8969 1.97964 1.64506 2.30215 1.40508 2.72538C0.92288 3.57581 0.490797 4.83063 0.663212 6.45133L0.663996 6.4587L0.664955 6.46605C1.06721 9.54999 3.00356 12.0492 5.01708 14.1886L5.0414 14.2144L5.86489 14.9112C7.94964 16.9301 10.5048 18.854 13.5789 19.255C15.1739 19.463 16.4181 19.0458 17.263 18.5706C17.6833 18.3341 18.0044 18.0838 18.2231 17.8897C18.3326 17.7925 18.4171 17.7088 18.4761 17.6471C18.5056 17.6162 18.5289 17.5907 18.5457 17.5718C18.5495 17.5675 18.553 17.5636 18.5562 17.56C19.5112 16.589 19.5685 15.1675 18.9608 14.0901C18.6469 13.4722 18.065 12.9102 17.4357 12.4056C16.867 11.9107 16.2987 11.6292 15.7542 11.425L15.7433 11.4209L15.7323 11.4173C14.8332 11.1176 13.7037 11.1673 12.8666 11.9207L12.8469 11.9384L12.8306 11.9558L12.8297 11.9568L12.8273 11.9592C12.8235 11.963 12.8165 11.9701 12.8065 11.9798C12.7864 11.9994 12.7547 12.0293 12.7129 12.0655C12.6284 12.1389 12.5084 12.2334 12.366 12.3201C12.063 12.5045 11.7596 12.5941 11.4988 12.5289L11.4933 12.5275L11.4877 12.5262C10.846 12.3781 10.1352 11.9144 9.28915 11.0683L8.92239 10.7015C8.11183 9.82764 7.60187 9.1259 7.4562 8.49468L7.45492 8.48914L7.45354 8.48363C7.38835 8.22285 7.47793 7.91937 7.66233 7.61643C7.74899 7.47406 7.84351 7.35402 7.91687 7.2695C7.95311 7.22775 7.98302 7.19599 8.00257 7.17591C8.01231 7.1659 8.01938 7.15889 8.02326 7.1551L8.02566 7.15274L8.0263 7.15215L8.04402 7.13554L8.06176 7.11582C8.79249 6.3039 8.95049 5.17061 8.54913 4.20733L8.5467 4.2015C8.34019 3.71965 8.00296 3.11373 7.5972 2.57272L7.59135 2.56491L7.58525 2.55728C7.07854 1.9239 6.51363 1.33725 5.89234 1.02158C4.81492 0.413897 3.39343 0.471235 2.42245 1.42623ZM3.28915 2.32716C3.81333 1.80297 4.62266 1.73568 5.28712 2.11537L5.30218 2.12398L5.3177 2.13173C5.68868 2.31723 6.11649 2.7234 6.603 3.33045C6.9438 3.78636 7.22873 4.30033 7.39645 4.6909C7.61614 5.22103 7.52824 5.82867 7.14561 6.26502C7.13539 6.27507 7.12233 6.28812 7.10688 6.304C7.07271 6.33909 7.02646 6.38839 6.97285 6.45016C6.86652 6.57266 6.72667 6.7495 6.59458 6.9665C6.34214 7.38123 6.05754 8.04413 6.23944 8.78105C6.4697 9.77078 7.20574 10.6898 8.01421 11.5605L8.02208 11.569L8.40526 11.9522C9.30758 12.8545 10.2202 13.515 11.2014 13.743C11.9383 13.9249 12.6012 13.6403 13.0159 13.3878C13.2329 13.2558 13.4098 13.1159 13.5323 13.0096C13.594 12.956 13.6433 12.9097 13.6784 12.8755C13.6942 12.8602 13.7072 12.8472 13.7172 12.837C14.1276 12.4786 14.7359 12.406 15.3265 12.5997C15.7744 12.7685 16.1989 12.9844 16.6231 13.3556L16.6335 13.3647L16.6443 13.3733C17.2556 13.8623 17.6644 14.2922 17.8507 14.6647L17.8584 14.6802L17.8671 14.6953C18.2467 15.3598 18.1795 16.1691 17.6553 16.6933L17.6352 16.7133L17.6193 16.7324L17.6122 16.7406C17.6048 16.7489 17.5916 16.7634 17.5728 16.783C17.5351 16.8224 17.4751 16.8822 17.3932 16.9549C17.229 17.1007 16.9798 17.2957 16.6502 17.4811C15.9951 17.8496 15.0205 18.1824 13.7405 18.0155C11.0721 17.6674 8.75726 15.9748 6.7198 13.999L6.70459 13.9843L5.90311 13.3061C3.92897 11.2049 2.2539 8.96377 1.90542 6.31178C1.76741 4.99861 2.11598 4.00589 2.49245 3.34193C2.68216 3.00735 2.87954 2.75564 3.02638 2.59034C3.09964 2.50786 3.15978 2.44751 3.19929 2.40972C3.21902 2.39085 3.23353 2.37767 3.24187 2.37024L3.24946 2.36357L3.25001 2.3631L3.2691 2.34721L3.28915 2.32716Z" fill="black"/>
</svg>
