<svg width="32" height="32" viewBox="0 0 32 32" fill="none" xmlns="http://www.w3.org/2000/svg">
<path fill-rule="evenodd" clip-rule="evenodd" d="M24 18H27C27.2652 18 27.5196 18.1054 27.7071 18.2929C27.8946 18.4805 28 18.7348 28 19V23C28 24.3261 27.4732 25.5979 26.5355 26.5356C25.5979 27.4732 24.3261 28 23 28H21.66H21.46H21H7C6.6165 28.0107 6.23467 27.9457 5.87631 27.8087C5.51796 27.6717 5.19011 27.4654 4.9115 27.2017C4.6329 26.9379 4.409 26.6219 4.2526 26.2716C4.0962 25.9212 4.01036 25.5435 4 25.16V6.84003C4.01036 6.45652 4.0962 6.07882 4.2526 5.7285C4.409 5.37819 4.6329 5.06212 4.9115 4.79838C5.19011 4.53463 5.51796 4.32837 5.87631 4.19139C6.23467 4.0544 6.6165 3.98938 7 4.00003H21C21.3835 3.98938 21.7653 4.0544 22.1237 4.19139C22.482 4.32837 22.8099 4.53463 23.0885 4.79838C23.3671 5.06212 23.591 5.37819 23.7474 5.7285C23.9038 6.07882 23.9896 6.45652 24 6.84003V18ZM6 6.84003V25.16C6.01006 25.281 6.04396 25.3988 6.09976 25.5066C6.15556 25.6144 6.23214 25.7102 6.3251 25.7882C6.41806 25.8663 6.52555 25.9252 6.64138 25.9616C6.75721 25.9979 6.8791 26.011 7 26H21C21.1209 26.011 21.2428 25.9979 21.3586 25.9616C21.4744 25.9252 21.5819 25.8663 21.6749 25.7882C21.7679 25.7102 21.8444 25.6144 21.9002 25.5066C21.956 25.3988 21.9899 25.281 22 25.16V6.84003C21.9899 6.71904 21.956 6.60125 21.9002 6.49343C21.8444 6.38561 21.7679 6.2899 21.6749 6.21181C21.5819 6.13373 21.4744 6.07481 21.3586 6.03847C21.2428 6.00212 21.1209 5.98905 21 6.00003H7C6.8791 5.98905 6.75721 6.00212 6.64138 6.03847C6.52555 6.07481 6.41806 6.13373 6.3251 6.21181C6.23214 6.2899 6.15556 6.38561 6.09976 6.49343C6.04396 6.60125 6.01006 6.71904 6 6.84003ZM25.4566 24.7416C25.8153 24.2321 26.0054 23.6231 26 23L26.1 20H24.1V25.16C24.0976 25.3902 24.064 25.6189 24 25.84C24.5884 25.6351 25.0978 25.251 25.4566 24.7416ZM9 10H19C19.2652 10 19.5196 10.1054 19.7071 10.2929C19.8946 10.4804 20 10.7348 20 11C20 11.2652 19.8946 11.5196 19.7071 11.7071C19.5196 11.8946 19.2652 12 19 12H9C8.73478 12 8.48043 11.8946 8.29289 11.7071C8.10536 11.5196 8 11.2652 8 11C8 10.7348 8.10536 10.4804 8.29289 10.2929C8.48043 10.1054 8.73478 10 9 10ZM19 14H9C8.73478 14 8.48043 14.1054 8.29289 14.2929C8.10536 14.4804 8 14.7348 8 15C8 15.2652 8.10536 15.5196 8.29289 15.7071C8.48043 15.8946 8.73478 16 9 16H19C19.2652 16 19.5196 15.8946 19.7071 15.7071C19.8946 15.5196 20 15.2652 20 15C20 14.7348 19.8946 14.4804 19.7071 14.2929C19.5196 14.1054 19.2652 14 19 14ZM9 18H15C15.2652 18 15.5196 18.1054 15.7071 18.2929C15.8946 18.4804 16 18.7348 16 19C16 19.2652 15.8946 19.5196 15.7071 19.7071C15.5196 19.8946 15.2652 20 15 20H9C8.73478 20 8.48043 19.8946 8.29289 19.7071C8.10536 19.5196 8 19.2652 8 19C8 18.7348 8.10536 18.4804 8.29289 18.2929C8.48043 18.1054 8.73478 18 9 18Z" fill="white"/>
</svg>
